<svg data-v-0dd9719b="" version="1.0" xmlns="http://www.w3.org/2000/svg" xmlns:xlink="http://www.w3.org/1999/xlink" width="100%" height="100%" viewBox="0 0 340.000000 250.000000" preserveAspectRatio="xMidYMid meet" color-interpolation-filters="sRGB" style="margin: auto;">
	<rect data-v-0dd9719b="" x="0" y="0" width="100%" height="100%" fill="#ffffff" fill-opacity="0" class="background"></rect>
	<rect data-v-0dd9719b="" x="0" y="0" width="100%" height="100%" fill="url(#watermark)" fill-opacity="1" class="watermarklayer"></rect>
	<g data-v-0dd9719b="" fill="#CF0808" class="icon-text-wrapper icon-svg-group iconsvg" transform="translate(83.0400013923645,29.131912231445312)">
		<g class="iconsvg-imagesvg" transform="translate(14.959999084472656,0)">
			<g>
				<rect fill="#CF0808" fill-opacity="0" stroke-width="2" x="0" y="0" width="144.00000000000006" height="135.54216867469884" class="image-rect"></rect>
				<svg x="0" y="0" width="144.00000000000006" height="135.54216867469884" filtersec="colorsb7846421719" class="image-svg-svg primary" style="overflow: visible;">
					<svg xmlns="http://www.w3.org/2000/svg" viewBox="0 0 106.24000549316406 100">
						<path fill="#0e7ec2" d="M0 60.88h42.27V100H0z"></path>
						<path fill="#d0542e" d="M44.85 47.19H100V100H44.85z"></path>
						<path fill="#20a94c" d="M45.48 0H100v42.96H45.48z"></path>
						<path fill="#f7be1b" d="M0 0h42.27v57.39H0z"></path>
						<path fill="#d0542e" d="M101.66 47.19h4.58V100h-4.58z"></path>
						<path fill="#20a94c" d="M101.66 0h4.58v42.96h-4.58z"></path>
					</svg>
				</svg>
				<!---->
			</g>
		</g>
		<g transform="translate(0,151.54217529296875)">
			<g data-gra="path-name" fill-rule="" class="tp-name iconsvg-namesvg">
				<g transform="scale(1)">
					<g>
						<path d="M6.88-39.1384L12.9-39.1384 12.9-17.0723Q12.9-14.372399999999999 13.49-12.788999999999998 14.07-11.2259 15.38-11.2259L15.38-11.2259Q16.69-11.2259 17.31-12.788999999999998 17.94-14.372399999999999 17.94-17.0723L17.94-17.0723 17.94-39.1384 23.96-39.1384 23.96-17.0723Q23.96-11.489799999999999 22.81-7.5516 21.67-3.5930999999999997 19.68-1.6037 17.69 0.3857 15.24 0.3857L15.24 0.3857Q12.79 0.3857 10.9-1.6037 9.01-3.5930999999999997 7.94-7.510999999999999 6.88-11.449199999999998 6.88-17.0723L6.88-17.0723 6.88-39.1384ZM46.06-39.1384L46.06 0 40.02 0 33.62-19.670699999999997 33.62 0 27.57 0 27.57-39.1384 33.62-39.1384 40.02-19.1226 40.02-39.1384 46.06-39.1384ZM49.78-39.1384L55.83-39.1384 55.83 0 49.78 0 49.78-39.1384ZM72.54-39.1384L78.97-39.1384 72.49 0 64.67 0 58.19-39.1384 64.62-39.1384 68.59-12.220599999999997 72.54-39.1384ZM94.18-29.3538L87.38-29.3538 87.38-24.542699999999996 93.37-24.542699999999996 93.37-15.306199999999999 87.38-15.306199999999999 87.38-9.7846 94.18-9.7846 94.18 0 81.33 0 81.33-39.1384 94.18-39.1384 94.18-29.3538ZM113.81 0L107.16 0 103.54-14.0476 103.52-14.0476 103.52 0 97.47 0 97.47-39.1384 106.46-39.1384Q108.8-39.1384 110.46-37.4535 112.12-35.7686 112.95-32.8657 113.78-29.962799999999998 113.78-26.308799999999998L113.78-26.308799999999998Q113.78-22.390899999999995 112.71-19.345899999999997 111.63-16.3009 109.62-14.981399999999999L109.62-14.981399999999999 113.81 0ZM103.52-28.8463L103.52-22.228499999999997 105.91-22.228499999999997Q106.78-22.228499999999997 107.22-23.0202 107.66-23.832199999999997 107.66-25.537399999999998L107.66-25.537399999999998Q107.66-27.080199999999998 107.21-27.973399999999994 106.76-28.8463 105.91-28.8463L105.91-28.8463 103.52-28.8463ZM124.26 0.3857Q120.8 0.3857 118.55-2.9029 116.31-6.191499999999999 116.12-12.545399999999999L116.12-12.545399999999999 122.54-12.545399999999999Q122.68-9.175599999999998 124.01-9.175599999999998L124.01-9.175599999999998Q124.5-9.175599999999998 124.84-9.642499999999998 125.18-10.109399999999999 125.18-11.104099999999999L125.18-11.104099999999999Q125.18-12.484499999999999 124.45-13.357399999999998 123.71-14.209999999999999 122.16-15.306199999999999L122.16-15.306199999999999Q120.31-16.645999999999997 119.1-17.9046 117.89-19.183499999999995 117.02-21.6195 116.14-24.0555 116.17-27.851599999999998L116.17-27.851599999999998Q116.17-31.667999999999996 117.14-34.3476 118.1-37.0475 119.78-38.427899999999994 121.45-39.808299999999996 123.55-39.808299999999996L123.55-39.808299999999996Q127.09-39.808299999999996 129.17-36.479099999999995 131.26-33.170199999999994 131.37-27.141099999999994L131.37-27.141099999999994 124.86-27.141099999999994Q124.83-28.805699999999995 124.45-29.516199999999994 124.07-30.246999999999996 123.52-30.246999999999996L123.52-30.246999999999996Q123.14-30.246999999999996 122.9-29.719199999999997 122.65-29.191399999999998 122.65-28.257599999999996L122.65-28.257599999999996Q122.65-26.917799999999996 123.37-26.065199999999997 124.1-25.2126 125.67-23.9946L125.67-23.9946Q127.5-22.6142 128.68-21.335299999999997 129.87-20.0767 130.74-17.803099999999997 131.61-15.529499999999999 131.61-12.098799999999999L131.61-12.098799999999999Q131.61-8.5057 130.74-5.6636999999999995 129.87-2.8216999999999994 128.21-1.2179999999999997 126.55 0.3857 124.26 0.3857L124.26 0.3857ZM134.74-39.1384L140.78-39.1384 140.78 0 134.74 0 134.74-39.1384ZM143.41-39.1384L159.64-39.1384 159.64-29.414699999999996 154.52-29.414699999999996 154.52 0 148.48 0 148.48-29.414699999999996 143.41-29.414699999999996 143.41-39.1384ZM173.99-39.1384L180.8-39.1384 173.88-11.875499999999999 173.88 0 167.83 0 167.83-11.875499999999999 160.92-39.1384 167.83-39.1384 170.91-25.253199999999996 173.99-39.1384Z" transform="translate(-6.880000114440918, 39.80830001831055)"></path>
					</g>
					<!---->
					<!---->
					<!---->
					<!---->
					<!---->
					<!---->
					<!---->
				</g>
			</g>
			<!---->
		</g>
	</g>
	<defs v-gra="od"></defs>
</svg>